<?xml version="1.0" encoding="iso-8859-1"?>
<!-- Generator: Adobe Illustrator 19.0.0, SVG Export Plug-In . SVG Version: 6.00 Build 0)  -->
<svg version="1.1" id="Layer_1" xmlns="http://www.w3.org/2000/svg" xmlns:xlink="http://www.w3.org/1999/xlink" x="0px" y="0px"
	 viewBox="0 0 512 512" style="enable-background:new 0 0 512 512;" xml:space="preserve">
<polygon style="fill:#BCAE91;" points="59.733,499.2 452.267,499.2 452.267,38.4 59.733,38.4 "/>
<g>
	<polygon style="fill:#877E6C;" points="34.133,38.4 477.867,38.4 477.867,4.267 34.133,4.267 	"/>
	<polygon style="fill:#877E6C;" points="298.667,499.2 401.067,499.2 401.067,345.6 298.667,345.6 	"/>
</g>
<polygon style="fill:#51493B;" points="162.133,157.867 230.4,157.867 230.4,89.6 162.133,89.6 "/>
<g>
	<polygon style="fill:#877E6C;" points="93.867,413.867 162.133,413.867 162.133,345.6 93.867,345.6 	"/>
	<polygon style="fill:#877E6C;" points="93.867,157.867 162.133,157.867 162.133,89.6 93.867,89.6 	"/>
</g>
<polygon style="fill:#51493B;" points="349.867,157.867 418.133,157.867 418.133,89.6 349.867,89.6 "/>
<polygon style="fill:#877E6C;" points="281.6,157.867 349.867,157.867 349.867,89.6 281.6,89.6 "/>
<polygon style="fill:#51493B;" points="162.133,277.333 230.4,277.333 230.4,209.067 162.133,209.067 "/>
<polygon style="fill:#877E6C;" points="93.867,277.333 162.133,277.333 162.133,209.067 93.867,209.067 "/>
<g>
	<polygon style="fill:#51493B;" points="162.133,413.867 230.4,413.867 230.4,345.6 162.133,345.6 	"/>
	<polygon style="fill:#51493B;" points="349.867,277.333 418.133,277.333 418.133,209.067 349.867,209.067 	"/>
</g>
<polygon style="fill:#877E6C;" points="281.6,277.333 349.867,277.333 349.867,209.067 281.6,209.067 "/>
<polygon style="fill:#51493B;" points="341.333,499.2 358.4,499.2 358.4,345.6 341.333,345.6 "/>
<path style="fill:#877E6C;" d="M503.467,507.733H8.533C3.413,507.733,0,504.32,0,499.2c0-5.12,3.413-8.533,8.533-8.533h494.933
	c5.12,0,8.533,3.413,8.533,8.533C512,504.32,508.587,507.733,503.467,507.733"/>
<g>
</g>
<g>
</g>
<g>
</g>
<g>
</g>
<g>
</g>
<g>
</g>
<g>
</g>
<g>
</g>
<g>
</g>
<g>
</g>
<g>
</g>
<g>
</g>
<g>
</g>
<g>
</g>
<g>
</g>
</svg>
